<svg width="512" height="512" viewBox="0 0 512 512" version="1.1" xmlns="http://www.w3.org/2000/svg" xmlns:xlink="http://www.w3.org/1999/xlink">
<title>google</title>
<desc>Created using Figma</desc>
<g id="Canvas" transform="translate(-2131 -876)">
<g id="google">
<g id="Vector">
<use xlink:href="#path0_fill" transform="translate(2131 1014.27)" fill="#FFFFFF"/>
</g>
<g id="Vector">
<use xlink:href="#path1_fill" transform="translate(2392.63 1084.18)" fill="#FFFFFF"/>
</g>
<g id="Vector">
<use xlink:href="#path2_fill" transform="translate(2161.51 1185.41)" fill="#FFFFFF"/>
</g>
<g id="Vector">
<use xlink:href="#path3_fill" transform="translate(2159.62 876)" fill="#FFFFFF"/>
</g>
</g>
</g>
<defs>
<path id="path0_fill" d="M 113.47 171.14L 95.648 237.672L 30.509 239.05C 11.042 202.943 0 161.632 0 117.732C 0 75.281 10.324 35.249 28.624 5.37109e-06L 28.638 5.37109e-06L 86.63 10.632L 112.034 68.276C 106.717 83.777 103.819 100.417 103.819 117.732C 103.821 136.524 107.225 154.529 113.47 171.14Z"/>
<path id="path1_fill" d="M 245.899 -5.12695e-06C 248.839 15.486 250.372 31.479 250.372 47.824C 250.372 66.152 248.445 84.03 244.774 101.275C 232.312 159.958 199.749 211.2 154.64 247.462L 154.626 247.448L 81.582 243.721L 71.244 179.186C 101.176 161.632 124.568 134.161 136.89 101.275L -9.27734e-06 101.275L -9.27734e-06 -5.12695e-06L 138.887 -5.12695e-06L 245.899 -5.12695e-06Z"/>
<path id="path2_fill" d="M 385.744 146.215L 385.758 146.229C 341.887 181.492 286.157 202.591 225.491 202.591C 128 202.591 43.239 148.1 7.78198e-07 67.91L 82.961 -3.41797e-06C 104.58 57.698 160.239 98.771 225.491 98.771C 253.538 98.771 279.814 91.189 302.361 77.953L 385.744 146.215Z"/>
<path id="path3_fill" d="M 390.78 58.936L 307.847 126.832C 284.512 112.246 256.928 103.82 227.376 103.82C 160.647 103.82 103.947 146.777 83.411 206.544L 0.0140005 138.268L 5.49316e-07 138.268C 42.606 56.123 128.436 0 227.376 0C 289.491 0 346.444 22.126 390.78 58.936Z"/>
</defs>
</svg>
