<svg width="417" height="132" viewBox="0 0 417 132" version="1.1" xmlns="http://www.w3.org/2000/svg" xmlns:xlink="http://www.w3.org/1999/xlink">
<title>mm-logo</title>
<desc>Created using Figma</desc>
<g id="Canvas" transform="translate(767 398)">
<g id="mm-logo">
<g id="mm-icon">
<g id="Ellipse 3">
<mask id="mask0_outline_ins">
<use xlink:href="#path0_fill" fill="white" transform="translate(-767 -398)"/>
</mask>
<g mask="url(#mask0_outline_ins)">
<use xlink:href="#path1_stroke_2x" transform="translate(-767 -398)"/>
</g>
</g>
<g id="M">
<use xlink:href="#path2_fill" transform="translate(-742 -339)"/>
</g>
</g>
<g id="MENTAL MODELS">
<use xlink:href="#path3_fill" transform="translate(-612 -413)" fill="#333333"/>
</g>
</g>
</g>
<defs>
<path id="path0_fill" d="M 132 66C 132 102.451 102.451 132 66 132C 29.5492 132 0 102.451 0 66C 0 29.5492 29.5492 0 66 0C 102.451 0 132 29.5492 132 66Z"/>
<path id="path1_stroke_2x" d="M 122 66C 122 96.9279 96.9279 122 66 122L 66 142C 107.974 142 142 107.974 142 66L 122 66ZM 66 122C 35.0721 122 10 96.9279 10 66L -10 66C -10 107.974 24.0264 142 66 142L 66 122ZM 10 66C 10 35.0721 35.0721 10 66 10L 66 -10C 24.0264 -10 -10 24.0264 -10 66L 10 66ZM 66 10C 96.9279 10 122 35.0721 122 66L 142 66C 142 24.0264 107.974 -10 66 -10L 66 10Z"/>
<path id="path2_fill" d="M 23.808 -25.84L 40.128 17.552L 40.32 17.552L 56.736 -25.84L 75.744 -25.84L 75.744 -18.064L 72.576 -17.776C 70.656 -17.584 69.728 -16.464 69.792 -14.416L 72.192 29.552L 78.144 29.84L 78.144 38L 55.008 38L 55.008 30.224L 58.464 29.936C 60.192 29.808 61.024 28.976 60.96 27.44L 59.136 -6.448L 58.944 -6.448L 44.16 31.856L 35.04 31.856L 20.448 -6.064L 20.256 -6.064L 18.336 29.552L 24.576 29.84L 24.576 38L 1.92 38L 1.92 30.224L 5.376 29.936C 6.848 29.808 7.648 28.944 7.776 27.344L 10.368 -17.296L 4.512 -17.68L 4.512 -25.84L 23.808 -25.84Z"/>
<path id="path3_fill" d="M 17.36 28.45L 29.26 60.09L 29.4 60.09L 41.37 28.45L 55.23 28.45L 55.23 34.12L 52.92 34.33C 51.52 34.47 50.8433 35.2867 50.89 36.78L 52.64 68.84L 56.98 69.05L 56.98 75L 40.11 75L 40.11 69.33L 42.63 69.12C 43.89 69.0267 44.4967 68.42 44.45 67.3L 43.12 42.59L 42.98 42.59L 32.2 70.52L 25.55 70.52L 14.91 42.87L 14.77 42.87L 13.37 68.84L 17.92 69.05L 17.92 75L 1.4 75L 1.4 69.33L 3.92 69.12C 4.99333 69.0267 5.57667 68.3967 5.67 67.23L 7.56 34.68L 3.29 34.4L 3.29 28.45L 17.36 28.45ZM 94.0089 75L 60.7589 75L 60.7589 69.33L 63.0689 69.12C 64.4222 68.98 65.0989 68.3267 65.0989 67.16L 65.0989 34.61L 61.1089 34.4L 61.1089 28.45L 93.1689 28.45L 93.1689 40.07L 86.0289 40.56L 86.0289 37.76C 86.0289 36.9667 85.9122 36.4067 85.6789 36.08C 85.4456 35.7533 84.8856 35.59 83.9989 35.59L 73.6389 35.59L 73.6389 47.56L 89.8089 47.56L 89.8089 54.7L 73.6389 54.7L 73.6389 67.79L 84.9089 67.79C 85.7489 67.79 86.2856 67.6267 86.5189 67.3C 86.7522 66.9267 86.8689 66.3433 86.8689 65.55L 86.8689 62.05L 94.0089 62.54L 94.0089 75ZM 99.0369 75L 99.0369 69.33L 101.557 69.12C 102.77 69.0267 103.377 68.3733 103.377 67.16L 103.377 34.61L 99.3869 34.4L 99.3869 28.45L 111.987 28.45L 131.797 60.58L 131.937 60.58L 131.937 34.61L 127.317 34.4L 127.317 28.45L 144.397 28.45L 144.397 34.12L 141.877 34.33C 140.757 34.4233 140.197 35.1467 140.197 36.5L 140.197 75L 132.007 75L 111.777 42.38L 111.637 42.38L 111.637 68.84L 116.187 69.05L 116.187 75L 99.0369 75ZM 161.412 67.16L 161.412 35.38L 155.952 35.38C 154.879 35.38 154.342 36.1033 154.342 37.55L 154.342 40.84L 147.202 40.35L 147.202 28.45L 183.812 28.45L 183.812 40.35L 176.672 40.84L 176.672 37.55C 176.672 36.7567 176.556 36.1967 176.322 35.87C 176.089 35.5433 175.529 35.38 174.642 35.38L 169.882 35.38L 169.882 68.84L 175.412 69.05L 175.412 75L 155.672 75L 155.672 69.33L 159.382 69.12C 160.736 68.98 161.412 68.3267 161.412 67.16ZM 184.682 67.16L 195.952 34.54L 191.542 34.12L 191.542 28.45L 207.572 28.45L 221.852 68.84L 221.922 68.84L 225.912 69.05L 225.912 75L 207.852 75L 207.852 69.33L 210.512 69.12C 211.305 69.0267 211.842 68.84 212.122 68.56C 212.402 68.28 212.425 67.7667 212.192 67.02L 210.722 62.68L 194.342 62.68L 192.242 68.84L 196.442 69.05L 196.442 75L 180.272 75L 180.272 69.33L 182.582 69.12C 183.562 69.0267 184.262 68.3733 184.682 67.16ZM 202.532 36.29L 196.022 56.24L 209.042 56.24L 202.742 36.29L 202.532 36.29ZM 261.76 75L 228.51 75L 228.51 69.33L 230.82 69.12C 232.173 68.98 232.85 68.3267 232.85 67.16L 232.85 34.61L 228.86 34.4L 228.86 28.45L 245.73 28.45L 245.73 34.12L 243.42 34.33C 242.066 34.47 241.39 35.2167 241.39 36.57L 241.39 67.79L 253.01 67.79C 253.663 67.79 254.083 67.6267 254.27 67.3C 254.503 66.9267 254.62 66.3433 254.62 65.55L 254.62 60.65L 261.76 61.14L 261.76 75ZM 17.36 89.45L 29.26 121.09L 29.4 121.09L 41.37 89.45L 55.23 89.45L 55.23 95.12L 52.92 95.33C 51.52 95.47 50.8433 96.2867 50.89 97.78L 52.64 129.84L 56.98 130.05L 56.98 136L 40.11 136L 40.11 130.33L 42.63 130.12C 43.89 130.027 44.4967 129.42 44.45 128.3L 43.12 103.59L 42.98 103.59L 32.2 131.52L 25.55 131.52L 14.91 103.87L 14.77 103.87L 13.37 129.84L 17.92 130.05L 17.92 136L 1.4 136L 1.4 130.33L 3.92 130.12C 4.99333 130.027 5.57667 129.397 5.67 128.23L 7.56 95.68L 3.29 95.4L 3.29 89.45L 17.36 89.45ZM 82.5289 88.61C 88.0822 88.61 92.7256 90.57 96.4589 94.49C 100.192 98.41 102.059 104.407 102.059 112.48C 102.059 120.507 100.192 126.597 96.4589 130.75C 92.7722 134.857 87.7556 136.91 81.4089 136.91C 75.1089 136.91 70.1622 134.857 66.5689 130.75C 62.9756 126.643 61.1789 120.67 61.1789 112.83C 61.1789 108.537 61.8089 104.78 63.0689 101.56C 64.3289 98.2933 65.9856 95.7733 68.0389 94C 72.1922 90.4067 77.0222 88.61 82.5289 88.61ZM 69.9289 112.48C 69.9289 124.053 73.9422 129.84 81.9689 129.84C 86.2622 129.84 89.2722 128.067 90.9989 124.52C 92.5856 121.393 93.3789 117.567 93.3789 113.04C 93.3789 108.98 92.6789 105.247 91.2789 101.84C 90.4856 99.9733 89.2722 98.5033 87.6389 97.43C 86.0522 96.3567 83.9756 95.82 81.4089 95.82C 78.8422 95.82 76.6256 96.66 74.7589 98.34C 72.9389 100.02 71.6789 102.05 70.9789 104.43C 70.2789 106.81 69.9289 109.493 69.9289 112.48ZM 107.243 136L 107.243 130.33L 109.553 130.12C 110.907 129.98 111.583 129.327 111.583 128.16L 111.583 95.61L 107.593 95.4L 107.593 89.45L 126.773 89.45C 133.633 89.45 138.977 91.27 142.803 94.91C 146.677 98.55 148.613 103.94 148.613 111.08C 148.613 115.513 148.03 119.387 146.863 122.7C 145.697 125.967 144.11 128.533 142.103 130.4C 138.09 134.133 133.097 136 127.123 136L 107.243 136ZM 120.123 96.24L 120.123 129.28L 127.263 129.28C 131.277 129.28 134.403 127.833 136.643 124.94C 138.883 122.047 140.003 117.847 140.003 112.34C 140.003 101.607 135.453 96.24 126.353 96.24L 120.123 96.24ZM 187.046 136L 153.796 136L 153.796 130.33L 156.106 130.12C 157.459 129.98 158.136 129.327 158.136 128.16L 158.136 95.61L 154.146 95.4L 154.146 89.45L 186.206 89.45L 186.206 101.07L 179.066 101.56L 179.066 98.76C 179.066 97.9667 178.949 97.4067 178.716 97.08C 178.483 96.7533 177.923 96.59 177.036 96.59L 166.676 96.59L 166.676 108.56L 182.846 108.56L 182.846 115.7L 166.676 115.7L 166.676 128.79L 177.946 128.79C 178.786 128.79 179.323 128.627 179.556 128.3C 179.789 127.927 179.906 127.343 179.906 126.55L 179.906 123.05L 187.046 123.54L 187.046 136ZM 225.324 136L 192.074 136L 192.074 130.33L 194.384 130.12C 195.737 129.98 196.414 129.327 196.414 128.16L 196.414 95.61L 192.424 95.4L 192.424 89.45L 209.294 89.45L 209.294 95.12L 206.984 95.33C 205.631 95.47 204.954 96.2167 204.954 97.57L 204.954 128.79L 216.574 128.79C 217.227 128.79 217.647 128.627 217.834 128.3C 218.067 127.927 218.184 127.343 218.184 126.55L 218.184 121.65L 225.324 122.14L 225.324 136ZM 244.302 129.7C 249.902 129.7 252.702 127.46 252.702 122.98C 252.702 120.647 251.465 118.92 248.992 117.8C 247.685 117.147 245.982 116.54 243.882 115.98C 241.828 115.42 240.102 114.86 238.702 114.3C 237.348 113.693 235.972 112.877 234.572 111.85C 231.818 109.797 230.442 106.647 230.442 102.4C 230.442 98.1067 231.912 94.7467 234.852 92.32C 237.838 89.8467 241.712 88.61 246.472 88.61C 251.278 88.61 255.735 89.5667 259.842 91.48L 259.842 101.98L 252.702 102.47L 252.702 98.41C 252.702 97.71 252.608 97.1967 252.422 96.87C 251.908 95.9833 250.252 95.54 247.452 95.54C 244.698 95.54 242.645 96.03 241.292 97.01C 239.985 97.99 239.332 99.5067 239.332 101.56C 239.332 103.053 239.892 104.36 241.012 105.48C 241.758 106.227 242.855 106.857 244.302 107.37C 245.795 107.837 247.358 108.327 248.992 108.84C 250.672 109.353 252.142 109.913 253.402 110.52C 254.708 111.127 256.062 111.967 257.462 113.04C 260.308 115.14 261.732 118.383 261.732 122.77C 261.732 127.157 260.145 130.61 256.972 133.13C 253.845 135.65 249.692 136.91 244.512 136.91C 239.378 136.91 234.758 135.953 230.652 134.04L 230.652 122.98L 237.792 122.49L 237.792 126.76C 237.792 127.46 237.885 127.973 238.072 128.3C 238.258 128.627 238.818 128.953 239.752 129.28C 240.732 129.56 242.248 129.7 244.302 129.7Z"/>
</defs>
</svg>
