<svg width="14" height="14" viewBox="0 0 14 14" version="1.1" xmlns="http://www.w3.org/2000/svg" xmlns:xlink="http://www.w3.org/1999/xlink">
<title>x</title>
<desc>Created using Figma</desc>
<g id="Canvas" transform="translate(-1566 -1342)">
<g id="x">
<g id="Shape">
<use xlink:href="#path0_stroke" transform="translate(1567 1343)" fill="#999999"/>
</g>
<g id="Shape">
<use xlink:href="#path1_stroke" transform="translate(1567 1343)" fill="#999999"/>
</g>
</g>
</g>
<defs>
<path id="path0_stroke" d="M 12.7071 0.707107C 13.0976 0.316583 13.0976 -0.316583 12.7071 -0.707107C 12.3166 -1.09763 11.6834 -1.09763 11.2929 -0.707107L 12.7071 0.707107ZM -0.707107 11.2929C -1.09763 11.6834 -1.09763 12.3166 -0.707107 12.7071C -0.316583 13.0976 0.316583 13.0976 0.707107 12.7071L -0.707107 11.2929ZM 11.2929 -0.707107L -0.707107 11.2929L 0.707107 12.7071L 12.7071 0.707107L 11.2929 -0.707107Z"/>
<path id="path1_stroke" d="M 0.707107 -0.707107C 0.316583 -1.09763 -0.316583 -1.09763 -0.707107 -0.707107C -1.09763 -0.316583 -1.09763 0.316583 -0.707107 0.707107L 0.707107 -0.707107ZM 11.2929 12.7071C 11.6834 13.0976 12.3166 13.0976 12.7071 12.7071C 13.0976 12.3166 13.0976 11.6834 12.7071 11.2929L 11.2929 12.7071ZM -0.707107 0.707107L 11.2929 12.7071L 12.7071 11.2929L 0.707107 -0.707107L -0.707107 0.707107Z"/>
</defs>
</svg>
